
<svg xmlns="http://www.w3.org/2000/svg" width="512" height="512" viewBox="0 0 512 512">
  <defs>
    <linearGradient id="g" x1="0" y1="0" x2="1" y2="1">
      <stop offset="0" stop-color="#7DBA92"/>
      <stop offset="1" stop-color="#7AA0FF"/>
    </linearGradient>
  </defs>
  <rect width="512" height="512" rx="48" fill="#0b0f14"/>
  <path d="M 380 130 C 330 106 220 124 220 168 C 220 214 330 196 330 254 C 330 316 180 316 156 276"
        stroke="url(#g)" stroke-width="26" fill="none" stroke-linecap="round"/>
  <g transform="translate(80,360)" fill="#e8edf6">
    <path d="M0,50 C0,20 60,30 60,5 C60,-20 20,-20 0,-12 L0,-30 C15,-35 35,-40 55,-40 C90,-40 110,-25 110,5 C110,35 50,28 50,52 C50,70 75,72 98,62 L98,80 C78,86 58,90 40,90 C15,90 0,78 0,50 Z"/>
    <path d="M170,-40 C210,-40 235,-16 235,25 C235,65 210,90 170,90 C130,90 105,65 105,25 C105,-16 130,-40 170,-40 Z M170,-20 C142,-20 125,-2 125,25 C125,52 142,70 170,70 C198,70 215,52 215,25 C215,-2 198,-20 170,-20 Z"/>
    <path d="M280,10 L280,-40 L300,-40 L300,25 C300,55 320,70 350,70 C380,70 400,55 400,25 L400,-40 L420,-40 L420,90 L400,90 L400,70 C387,84 370,90 350,90 C310,90 280,64 280,10 Z"/>
  </g>
</svg>
