
<svg xmlns="http://www.w3.org/2000/svg" width="1200" height="260" viewBox="0 0 1200 260">
  <defs>
    <linearGradient id="g" x1="0" y1="0" x2="1" y2="1">
      <stop offset="0" stop-color="#7DBA92"/>
      <stop offset="1" stop-color="#7AA0FF"/>
    </linearGradient>
  </defs>
  <rect width="1200" height="260" rx="28" fill="#0b0f14"/>
  <g transform="translate(28,28)">
    <rect x="0" y="0" width="204" height="204" rx="28" fill="none" stroke="#2a3446"/>
    <path d="M 168 48 C 142 35 86 44 86 68 C 86 93 142 84 142 112 C 142 142 76 142 62 119"
          stroke="url(#g)" stroke-width="18" fill="none" stroke-linecap="round"/>
  </g>
  <g transform="translate(260,60)" fill="#e8edf6">
    <path d="M40,90 C40,60 100,70 100,45 C100,20 60,20 40,28 L40,10 C55,5 75,0 95,0 C130,0 150,15 150,45 C150,75 90,68 90,92 C90,110 115,112 138,102 L138,120 C118,126 98,130 80,130 C55,130 40,118 40,90 Z"/>
    <path d="M220,0 C260,0 285,24 285,65 C285,105 260,130 220,130 C180,130 155,105 155,65 C155,24 180,0 220,0 Z M220,20 C192,20 175,38 175,65 C175,92 192,110 220,110 C248,110 265,92 265,65 C265,38 248,20 220,20 Z"/>
    <path d="M330,50 L330,0 L350,0 L350,65 C350,95 370,110 400,110 C430,110 450,95 450,65 L450,0 L470,0 L470,130 L450,130 L450,110 C437,124 420,130 400,130 C360,130 330,104 330,50 Z"/>
    <path d="M530,100 C543,116 563,130 595,130 C635,130 660,111 660,75 L660,-5 L680,-5 L680,130 L660,130 L660,110 C646,124 626,130 600,130 C555,130 520,104 520,65 C520,26 555,0 600,0 C626,0 646,6 660,20 L660,0 L680,0 L680,75 C680,111 655,130 615,130 C580,130 556,116 543,100 Z M600,20 C568,20 540,39 540,65 C540,91 568,110 600,110 C632,110 660,91 660,65 C660,39 632,20 600,20 Z"/>
    <path d="M740,0 L760,0 L760,70 C760,94 780,110 810,110 C840,110 860,94 860,70 L860,0 L880,0 L880,130 L860,130 L860,112 C847,124 830,130 808,130 C768,130 740,105 740,70 Z"/>
  </g>
</svg>
